<svg xmlns="http://www.w3.org/2000/svg" xmlns:xlink="http://www.w3.org/1999/xlink" version="1.1" x="0px" y="0px"  viewBox="49.64 200 400.86 100">
<g id="OBJECTS">
	<g>
		<g>
			<path id="CUSTOM-Form1" style="fill:white" d="M391.728,271.448c-5.459-66.579-67.682-118.733-141.657-118.733     c-73.975,0-136.199,52.154-141.659,118.733l-1.761-0.145c5.534-67.489,68.531-120.356,143.42-120.356     c74.888,0,137.885,52.867,143.419,120.356L391.728,271.448z"/>
			<path id="CUSTOM-Form5" style="fill:white" d="M405.538,268.755c-4.619-72.212-72.579-129.711-155.467-129.711     c-82.888,0-150.849,57.499-155.468,129.711H49.639v2.651h48.982v-2.33c4.433-70.397,70.665-126.469,151.451-126.469     c80.786,0,147.018,56.072,151.45,126.47h0v2.33h48.982v-2.651H405.538z"/>
		</g>
		<g>
			
				<line id="CUSTOM-Form3" style="fill:white;stroke:white;stroke-width:2;stroke-miterlimit:10;" x1="114.199" y1="350.884" x2="160.348" y2="350.884"/>
			
				<line id="CUSTOM-Form4" style="fill:white;stroke:white;stroke-width:2;stroke-miterlimit:10;" x1="339.188" y1="350.99" x2="385.337" y2="350.99"/>
			<text transform="matrix(1 0 0 1 208.2147 356.8058)" style="font-family:'JosefinSans-Regular'; font-size:17px;fill:white">EST. 1960</text>
		</g>
		<g>
			
				<line style="fill:none;stroke:white;stroke-width:2;stroke-miterlimit:10;" x1="92.114" y1="332.884" x2="407.518" y2="332.884"/>
			<rect x="106.3" y="294.829" style="fill:none;" width="287.032" height="30.705"/>
			<text transform="matrix(1 0 0 1 100.3 316.132)" style="font-family:'JosefinSans-Bold'; font-size:27px;stroke:white;fill:white">CLASSIC CARS DEALER</text>
		</g>
		<g style="fill:white">
			<g>
				<g> 
					<path d="M196.483,244.648c-2.104-1.413-4.986-2.631-6.491-2.631c-2.022,0-8.758-0.183-11.479,0.244       c-2.536,0.397-3.801,0.85-7.261,3.298c-2.262,2.897-3.576,6.563-3.484,10.524c0.212,9.104,7.764,16.313,16.868,16.101       c9.104-0.212,16.313-7.764,16.101-16.868C200.641,251.202,199.043,247.478,196.483,244.648z M184.53,267.612       c-6.569,0.153-12.037-5.067-12.189-11.635c-0.153-6.568,5.067-12.037,11.635-12.189c6.568-0.153,12.036,5.067,12.189,11.635       C196.318,261.992,191.098,267.46,184.53,267.612z"/>
					<path d="M184.348,259.799c-0.692,0.016-1.348-0.143-1.928-0.434l-3.545,4.245c1.594,1.087,3.528,1.707,5.6,1.659       c2.072-0.048,3.975-0.757,5.517-1.917l-3.739-4.076C185.688,259.594,185.04,259.783,184.348,259.799z"/>
					<path d="M184.157,251.602c0.692-0.016,1.348,0.143,1.928,0.434l3.545-4.245c-1.594-1.087-3.528-1.707-5.6-1.659       c-2.072,0.048-3.975,0.757-5.517,1.917l3.738,4.076C182.817,251.807,183.465,251.617,184.157,251.602z"/>
					<path d="M187.828,253.699c0.318,0.565,0.507,1.213,0.523,1.906c0.016,0.692-0.143,1.348-0.434,1.928l4.245,3.545       c1.087-1.594,1.707-3.528,1.658-5.6c-0.048-2.072-0.757-3.975-1.917-5.517L187.828,253.699z"/>
					<path d="M180.154,255.795c-0.016-0.692,0.143-1.348,0.434-1.928l-4.245-3.545c-1.087,1.594-1.706,3.528-1.658,5.6       c0.048,2.072,0.757,3.975,1.917,5.517l4.076-3.738C180.359,257.136,180.17,256.488,180.154,255.795z"/>
					<path d="M184.203,253.555c-1.183,0.028-2.123,1.012-2.095,2.195c0.028,1.183,1.012,2.123,2.195,2.095       c1.183-0.027,2.123-1.012,2.095-2.195C186.37,254.467,185.386,253.527,184.203,253.555z"/>
				</g>
			</g>
			<g>
				<g>
					<path d="M334.967,246.624c-1.993-1.405-4.647-2.09-5.971-2.09c-1.665,0-10.596,0-13.276,0c-2.336,0-6.5,2.506-9.001,5.363       c-0.95,2.149-1.456,4.535-1.397,7.039c0.212,9.104,7.764,16.313,16.868,16.101c9.104-0.212,16.313-7.764,16.101-16.868       C338.207,252.579,336.978,249.286,334.967,246.624z M322.083,268.465c-6.569,0.153-12.036-5.067-12.189-11.635       c-0.153-6.569,5.067-12.037,11.635-12.189c6.568-0.153,12.036,5.067,12.189,11.635       C333.871,262.844,328.652,268.312,322.083,268.465z"/>
					<path d="M321.902,260.651c-0.693,0.016-1.349-0.143-1.928-0.434l-3.545,4.245c1.594,1.087,3.528,1.707,5.6,1.659       c2.072-0.048,3.975-0.757,5.517-1.917l-3.738-4.076C323.242,260.446,322.594,260.635,321.902,260.651z"/>
					<path d="M321.711,252.454c0.692-0.016,1.348,0.143,1.928,0.434l3.545-4.245c-1.594-1.087-3.528-1.707-5.6-1.658       c-2.072,0.048-3.975,0.757-5.517,1.917l3.738,4.076C320.371,252.659,321.019,252.47,321.711,252.454z"/>
					<path d="M325.382,254.552c0.318,0.565,0.507,1.213,0.523,1.906c0.016,0.692-0.143,1.348-0.434,1.928l4.245,3.545       c1.087-1.594,1.707-3.528,1.658-5.6c-0.048-2.072-0.757-3.975-1.917-5.517L325.382,254.552z"/>
					<path d="M317.708,256.648c-0.016-0.692,0.143-1.348,0.434-1.928l-4.245-3.545c-1.087,1.594-1.706,3.528-1.658,5.6       c0.048,2.072,0.757,3.975,1.917,5.517l4.076-3.738C317.913,257.988,317.724,257.34,317.708,256.648z"/>
					<path d="M321.756,254.407c-1.183,0.028-2.123,1.012-2.095,2.195c0.028,1.183,1.012,2.123,2.195,2.095       c1.183-0.028,2.123-1.012,2.095-2.195C323.924,255.32,322.939,254.38,321.756,254.407z"/>
				</g>
			</g>
			<path d="M364.569,237.758l-4.88-2.44l-4.222-0.731c-21.532-4.371-43.484-6.336-65.45-5.857l-4.219,0.092l-20.124-14.603     c-4.225-3.066-9.33-4.681-14.55-4.604l-33.853,0.499c-8.662,0.128-17.186,2.196-24.944,6.052l-15.66,7.784l-29.488,1.92     c-3.575,0.233-7.057,1.242-10.202,2.958l-0.985,0.537c-1.391,0.759-2.332,2.109-2.599,3.638h65.602     c2.894,0,5.771,0.405,8.553,1.203l5.276,1.515c2.452,0.704,4.987,1.082,7.536,1.124c0,0,11.381-0.496,63.32,1.254     c0.006,0-63.352,0.694-63.352,0.694c-2.72-0.044-5.425-0.448-8.042-1.199l-5.276-1.515c-2.607-0.748-5.304-1.128-8.015-1.128     h-65.688v1.255c0,0.162,0.04,0.321,0.118,0.464c1.321,2.438,3.021,4.65,5.038,6.553l0.725,0.684     c0.341,0.321,0.534,0.769,0.534,1.237v2.185c0,0.574,0.231,1.124,0.64,1.526c2.529,2.484,5.829,4.032,9.355,4.389l13.796,1.397     c1.703-6.412,6.757-11.392,13.193-13.002l1.135-0.284c0.514-0.129,1.043-0.194,1.573-0.194h9.167     c8.219,0,14.881,6.663,14.881,14.881v5.824h56.758l2.923,1.705h36.702l0.407-2.201c1.239-6.706,5.303-12.556,11.154-16.058     l0.111-0.066c1.459-0.873,3.093-1.325,4.759-1.325h11.68c7.48,0,13.544,6.064,13.544,13.544v3.183l6.184-0.972     c3.4-0.534,6.611-1.919,9.333-4.026l1.78-1.378c0.562-0.434,0.89-1.105,0.89-1.815v-0.682c0-0.614,0.227-1.206,0.638-1.662     l2.805-3.116c0.6-0.666,1.454-1.047,2.35-1.047h0.145c0.667,0,1.207-0.54,1.207-1.207v-3.324     C366.835,239.872,365.958,238.452,364.569,237.758z M208.155,224.458l-4.692-0.223l9.363-6.082     c4.314-2.803,9.279-4.417,14.396-4.706l-9.786,13.297C214.522,225.39,211.371,224.611,208.155,224.458z M229.041,234.993h-6.252     v-0.662c0-0.755,0.613-1.368,1.368-1.368h3.517c0.755,0,1.368,0.612,1.368,1.368V234.993z M276.892,230.203h-46.677     c-2.239,0-4.457-0.313-6.6-0.904l-0.179-1.464c-0.236-1.935,0.203-3.891,1.243-5.539l5.617-8.901h20.666     c4.818,0,9.5,1.595,13.316,4.537l13.301,10.254C278.43,228.842,277.966,230.203,276.892,230.203z M151.171,241.165h-8.851     l-2.68-3.492h11.53V241.165z M359.66,245.856l-1.438,1.492c-0.243,0.252-0.577,0.394-0.927,0.394h-7.257     c-0.654,0-1.205-0.491-1.279-1.141l-0.123-1.072c-0.038-0.335,0.224-0.629,0.561-0.629h10.056     C359.752,244.9,360.006,245.498,359.66,245.856z"/>
		</g>
	</g>
</g>
</svg>